<?xml version="1.0" standalone="no"?><!DOCTYPE svg PUBLIC "-//W3C//DTD SVG 1.1//EN" "http://www.w3.org/Graphics/SVG/1.1/DTD/svg11.dtd"><svg t="1694166323858" class="icon" viewBox="0 0 1024 1024" version="1.1" xmlns="http://www.w3.org/2000/svg" p-id="6294" xmlns:xlink="http://www.w3.org/1999/xlink" width="200" height="200"><path d="M409.972364 88.250182l294.787878 0.124121-135.012848 294.787879 0.124121 0.06206a30.813091 30.813091 0 0 0-3.10303 14.087758c0.620606 16.725333 14.36703 29.602909 30.875151 29.789091h0.186182c0.496485 0 0.899879 0.279273 1.365334 0.248242 0.279273 0 0.527515-0.186182 0.806787-0.186181l180.19297 1.861818L408.855273 870.958545l64.201697-279.117575-0.341334-0.093091c0.589576-2.637576 1.396364-5.275152 1.303273-8.098909a31.247515 31.247515 0 0 0-32.426667-30.006303c-0.310303 0-0.558545 0.186182-0.868848 0.186181H210.602667L409.972364 88.250182zM164.770909 616.075636c0.310303 0 0.558545-0.155152 0.868849-0.186181h238.188606L319.488 982.605576l0.310303 0.06206c-0.558545 2.668606-1.365333 5.275152-1.272242 8.067879 0.682667 17.314909 15.204848 30.72 32.426666 30.068364a30.813091 30.813091 0 0 0 22.49697-11.326061l495.119515-589.141333c0.434424-0.434424 0.775758-0.930909 1.179152-1.396364l0.217212-0.310303h-0.031031a30.968242 30.968242 0 0 0 7.447273-21.162666 31.061333 31.061333 0 0 0-30.844121-29.789091v-0.031031h-0.248242c-0.465455 0-0.837818-0.217212-1.303273-0.186182-0.310303 0-0.496485 0.155152-0.775758 0.155152l-198.128485-2.048 135.261091-295.284364-0.124121-0.06206a30.813091 30.813091 0 0 0 3.10303-14.087758A31.247515 31.247515 0 0 0 751.864242 26.127515c-0.310303 0-0.558545 0.186182-0.868848 0.186182L389.585455 26.189576c-0.465455 0-0.837818-0.217212-1.303273-0.217212a31.030303 31.030303 0 0 0-27.306667 19.052606V44.993939l-0.093091 0.217213c-0.217212 0.558545-0.496485 1.086061-0.713697 1.675636L134.981818 572.664242a30.999273 30.999273 0 0 0-2.668606 13.436122c0.682667 17.252848 15.204848 30.68897 32.426667 30.006303z" fill="#2c2c2c" p-id="6295"></path></svg>