<?xml version="1.0" standalone="no"?><!DOCTYPE svg PUBLIC "-//W3C//DTD SVG 1.1//EN" "http://www.w3.org/Graphics/SVG/1.1/DTD/svg11.dtd"><svg t="1694166480533" class="icon" viewBox="0 0 1024 1024" version="1.1" xmlns="http://www.w3.org/2000/svg" p-id="8925" xmlns:xlink="http://www.w3.org/1999/xlink" width="200" height="200"><path d="M803.6 221.7c-0.6-2.2-0.6-4.4-1.6-6.6l-20.5-44c-20.9-44.7-58-78.7-104.7-95.7-46.6-16.9-96.9-14.8-141.7 6L287 197.2c-9.4 4.4-16 12.2-19.2 21.2h-15.3c-102.2 0-185.4 83.2-185.4 185.4v370.7c0 102.2 83.2 185.4 185.4 185.4h519c102.2 0 185.4-83.2 185.4-185.4V403.7c-0.1-91.1-66.4-166.7-153.3-182z m-237.1-73c26.8-12.5 56.9-13.7 85-3.5 28 10.2 50.3 30.6 62.8 57.3l7.4 15.9H417l149.5-69.7z m316.2 551.7h-160c-61.3 0-111.2-49.9-111.2-111.2S661.4 478 722.7 478h160v222.4z m-160-296.6c-102.2 0-185.4 83.2-185.4 185.4s83.2 185.4 185.4 185.4h160c0 61.3-49.9 111.2-111.2 111.2h-519c-61.3 0-111.2-49.9-111.2-111.2V403.8c0-61.3 49.9-111.2 111.2-111.2h519c61.3 0 111.2 49.9 111.2 111.2h-160z" fill="#2c2c2c" p-id="8926"></path><path d="M731.3 589.2m-74.1 0a74.1 74.1 0 1 0 148.2 0 74.1 74.1 0 1 0-148.2 0Z" fill="#2c2c2c" p-id="8927"></path></svg>